<?xml version="1.0" standalone="no"?><svg xmlns="http://www.w3.org/2000/svg" viewBox="0 0 1440 320"><path fill="#000000" fill-opacity="1" d="M0,96L20,128C40,160,80,224,120,229.3C160,235,200,181,240,181.3C280,181,320,235,360,245.3C400,256,440,224,480,213.3C520,203,560,213,600,181.3C640,149,680,75,720,58.7C760,43,800,85,840,101.3C880,117,920,107,960,133.3C1000,160,1040,224,1080,245.3C1120,267,1160,245,1200,234.7C1240,224,1280,224,1320,197.3C1360,171,1400,117,1420,90.7L1440,64L1440,0L1420,0C1400,0,1360,0,1320,0C1280,0,1240,0,1200,0C1160,0,1120,0,1080,0C1040,0,1000,0,960,0C920,0,880,0,840,0C800,0,760,0,720,0C680,0,640,0,600,0C560,0,520,0,480,0C440,0,400,0,360,0C320,0,280,0,240,0C200,0,160,0,120,0C80,0,40,0,20,0L0,0Z"></path></svg>